<svg id="Layer_1" data-name="Layer 1" xmlns="http://www.w3.org/2000/svg" viewBox="0 0 800 198"><polygon points="57.65 55.82 70.42 43.62 155.68 43.62 167.76 55.75 167.7 146.53 156 158.33 68.65 158.33 57.58 146.79 57.65 55.82" fill="#011a3e"/><text transform="translate(67.6 140.13) scale(1.25 1)" font-size="94.59" fill="#fff" font-family="OPTIAgency-Gothic">SB</text><polygon points="138.15 36.22 158.29 36.17 174.92 53.5 174.87 74.49 181.55 74.49 181.55 60.14 181.55 50.3 161.36 29.26 151.92 29.26 138.15 29.26 138.15 36.22" fill="#feb309"/><polygon points="50.48 74.56 50.43 53.57 67.06 36.23 87.2 36.29 87.2 29.33 73.43 29.33 63.99 29.33 43.8 50.37 43.8 60.21 43.8 74.56 50.48 74.56" fill="#feb309"/><polygon points="87.2 165.78 67.06 165.83 50.43 148.5 50.48 127.51 43.8 127.51 43.8 141.86 43.8 151.7 63.99 172.74 73.43 172.74 87.2 172.74 87.2 165.78" fill="#feb309"/><polygon points="174.83 127.49 174.88 148.47 158.24 165.81 138.11 165.76 138.11 172.72 151.87 172.72 161.31 172.72 181.5 151.68 181.5 141.84 181.5 127.49 174.83 127.49" fill="#feb309"/><rect x="125.84" y="165.78" width="5.34" height="6.96" fill="#feb309"/><rect x="115.22" y="165.78" width="5.34" height="6.96" fill="#feb309"/><rect x="104.6" y="165.78" width="5.34" height="6.96" fill="#feb309"/><rect x="93.98" y="165.78" width="5.34" height="6.96" fill="#feb309"/><rect x="125.93" y="29.26" width="5.34" height="6.96" fill="#feb309"/><rect x="115.31" y="29.26" width="5.34" height="6.96" fill="#feb309"/><rect x="104.69" y="29.26" width="5.34" height="6.96" fill="#feb309"/><rect x="94.08" y="29.26" width="5.34" height="6.96" fill="#feb309"/><path d="M50.61,81.55v5.57H22.09q.22-2.84.55-5.57Z" fill="#feb309"/><path d="M50.61,115v5.57H22.66c-.22-1.83-.41-3.68-.56-5.57Z" fill="#feb309"/><polygon points="21.73 109.42 50.61 109.42 50.61 103.85 21.55 103.85 21.73 109.42" fill="#feb309"/><polygon points="21.72 92.71 50.61 92.71 50.61 98.27 21.55 98.27 21.72 92.71" fill="#feb309"/><path d="M174.94,120.57V115h28.52c-.15,1.89-.33,3.74-.55,5.57Z" fill="#feb309"/><path d="M174.94,87.12V81.55h27.95c.22,1.82.4,3.68.56,5.57Z" fill="#feb309"/><polygon points="203.82 92.7 174.94 92.7 174.94 98.27 204 98.27 203.82 92.7" fill="#feb309"/><polygon points="203.83 109.41 174.94 109.41 174.94 103.85 204 103.85 203.83 109.41" fill="#feb309"/><text transform="translate(219.19 141.02)" font-size="120" fill="#011a3e" font-family="Texta-Heavy, Texta" font-weight="800">STUFFBITS</text><rect x="629" y="68.08" width="18" height="74" fill="#fff"/><path d="M645,71.59V84a2.5,2.5,0,0,1-1.79,2.4l-11,3.29A2.51,2.51,0,0,1,629,87.31V71.59a2.51,2.51,0,0,1,2.51-2.51h11A2.51,2.51,0,0,1,645,71.59Z" fill="#feb309"/><path d="M645,94.81v43.67a2.6,2.6,0,0,1-2.6,2.6H631.6a2.6,2.6,0,0,1-2.6-2.6V98a2.6,2.6,0,0,1,1.86-2.5l10.8-3.22A2.6,2.6,0,0,1,645,94.81Z" fill="#011a3e"/></svg>